<svg width="30" height="30" viewBox="0 0 63 63" xmlns="http://www.w3.org/2000/svg">
  <path d="M31.25 62.5C13.9906 62.5 0 48.5094 0 31.25C0 13.9906 13.9906 0 31.25 0C48.5094 0 62.5 13.9906 62.5 31.25C62.5 48.5094 48.5094 62.5 31.25 62.5ZM31.25 56.25C37.8804 56.25 44.2393 53.6161 48.9277 48.9277C53.6161 44.2393 56.25 37.8804 56.25 31.25C56.25 24.6196 53.6161 18.2607 48.9277 13.5723C44.2393 8.88392 37.8804 6.25 31.25 6.25C24.6196 6.25 18.2607 8.88392 13.5723 13.5723C8.88392 18.2607 6.25 24.6196 6.25 31.25C6.25 37.8804 8.88392 44.2393 13.5723 48.9277C18.2607 53.6161 24.6196 56.25 31.25 56.25ZM26.9437 20.0469L42.1906 30.2094C42.3621 30.3235 42.5027 30.4782 42.5999 30.6597C42.6972 30.8413 42.7481 31.044 42.7481 31.25C42.7481 31.456 42.6972 31.6587 42.5999 31.8403C42.5027 32.0218 42.3621 32.1765 42.1906 32.2906L26.9406 42.4531C26.7526 42.5778 26.5343 42.6492 26.309 42.6598C26.0836 42.6705 25.8596 42.62 25.6607 42.5136C25.4617 42.4072 25.2952 42.249 25.1789 42.0557C25.0626 41.8624 25.0008 41.6412 25 41.4156V21.0844C25.0004 20.8583 25.0622 20.6365 25.1786 20.4428C25.2951 20.249 25.4619 20.0904 25.6614 19.9839C25.8609 19.8775 26.0854 19.8271 26.3113 19.8382C26.5371 19.8493 26.7557 19.9214 26.9437 20.0469Z" fill="white"/>
</svg>
